<svg width="425" height="195" viewBox="0 0 425 195" fill="none" xmlns="http://www.w3.org/2000/svg">
<path d="M398.167 57.8979C398.167 74.9556 384.419 88.8499 367.361 88.8499C350.385 88.8499 336.556 75.0367 336.556 57.8979C336.556 40.8483 350.304 26.954 367.361 26.954C384.338 26.954 398.167 40.8483 398.167 57.8979ZM367.198 0.333328C335.643 0.333328 310.056 25.8752 309.722 57.4842L273.951 109.071C264.768 108.088 255.514 110.135 247.614 114.895L85.4666 49.4056C81.2429 30.1011 64.022 15.5498 43.5559 15.5498C19.9668 15.4768 0.666626 34.9434 0.666626 58.6522C0.666626 82.361 19.9586 101.747 43.5559 101.747C51.5955 101.747 59.0482 99.4998 65.4245 95.6632L227.572 161.055C231.796 180.441 248.935 195 269.483 195C291.669 195 310.056 177.861 312.127 156.148L367.198 115.722C398.917 115.722 424.667 89.9287 424.667 58.0682C424.667 26.2078 398.909 0.333328 367.198 0.333328ZM367.198 19.3863C388.48 19.3863 405.701 36.7684 405.701 58.0682C405.701 79.4491 388.398 96.669 367.198 96.669C345.917 96.669 328.688 79.368 328.688 58.0601C328.688 36.6873 345.909 19.3863 367.198 19.3863ZM43.5559 26.8729C55.648 26.8729 66.1665 33.6862 71.4665 43.6791L55.8111 37.3524V37.4336C49.7028 35.2296 42.9711 35.4831 37.0477 38.1399C31.1243 40.7968 26.4764 45.6475 24.0926 51.6604C19.0372 64.3138 24.8428 78.5326 37.098 84.0238V84.1049L50.4295 89.4339C48.2012 89.9375 45.9225 90.1878 43.6374 90.1801C26.1637 90.1801 12.082 76.0343 12.082 58.4819C12.0005 41.0998 26.0822 26.8729 43.5559 26.8729ZM269.466 120.207C286.94 120.207 301.022 134.353 301.022 151.906C301.022 169.458 286.94 183.604 269.466 183.604C263.704 183.616 258.049 182.046 253.126 179.066C248.203 176.086 244.202 171.813 241.564 166.717C246.782 168.793 251.919 170.878 257.13 173.043C260.193 174.268 263.47 174.877 266.772 174.836C270.074 174.795 273.335 174.105 276.367 172.805C279.399 171.506 282.143 169.622 284.441 167.263C286.738 164.904 288.543 162.116 289.753 159.06C292.227 152.865 292.146 145.95 289.526 139.815C286.907 133.68 281.96 128.82 275.761 126.291L262.593 120.962C264.916 120.548 267.151 120.207 269.466 120.207Z" fill="#174A88"/>
</svg>
