<svg width="512" height="512" viewBox="0 0 512 512" fill="none" xmlns="http://www.w3.org/2000/svg">
<path d="M399.781 249.025C399.781 262.546 388.865 273.559 375.321 273.559C361.842 273.559 350.862 262.61 350.862 249.025C350.862 235.511 361.777 224.498 375.321 224.498C388.801 224.498 399.781 235.511 399.781 249.025ZM375.192 203.397C350.137 203.397 329.821 223.643 329.555 248.698L301.153 289.587C293.862 288.809 286.514 290.431 280.241 294.204L151.496 242.294C148.142 226.993 134.469 215.458 118.219 215.458C99.4888 215.401 84.1644 230.831 84.1644 249.623C84.1644 268.416 99.4823 283.782 118.219 283.782C124.602 283.782 130.52 282.001 135.582 278.96L264.328 330.792C267.682 346.158 281.29 357.699 297.605 357.699C315.222 357.699 329.821 344.114 331.465 326.903L375.192 294.859C400.376 294.859 420.822 274.414 420.822 249.16C420.822 223.906 400.37 203.397 375.192 203.397ZM375.192 218.5C392.089 218.5 405.763 232.277 405.763 249.16C405.763 266.108 392.025 279.757 375.192 279.757C358.294 279.757 344.614 266.044 344.614 249.154C344.614 232.213 358.288 218.5 375.192 218.5V218.5ZM118.219 224.434C127.82 224.434 136.172 229.834 140.38 237.755L127.949 232.74V232.805C123.099 231.058 117.754 231.258 113.051 233.364C108.348 235.47 104.657 239.315 102.765 244.081C98.7507 254.111 103.36 265.381 113.091 269.734V269.798L123.676 274.022C121.907 274.421 120.098 274.62 118.283 274.614C104.409 274.614 93.2283 263.401 93.2283 249.488C93.1635 235.711 104.344 224.434 118.219 224.434V224.434ZM297.592 298.415C311.466 298.415 322.647 309.627 322.647 323.54C322.647 337.453 311.466 348.666 297.592 348.666C293.017 348.675 288.527 347.43 284.618 345.069C280.709 342.707 277.532 339.32 275.438 335.28C279.581 336.926 283.66 338.578 287.797 340.295C290.23 341.265 292.832 341.748 295.453 341.716C298.075 341.684 300.664 341.137 303.071 340.106C305.479 339.076 307.658 337.583 309.482 335.713C311.306 333.843 312.74 331.633 313.7 329.211C315.665 324.301 315.6 318.819 313.52 313.957C311.44 309.094 307.513 305.242 302.59 303.237L292.135 299.013C293.98 298.685 295.754 298.415 297.592 298.415V298.415Z" fill="#174A88"/>
<path d="M75.2362 511.785C70.811 511.804 66.4894 510.445 62.8704 507.898C59.2514 505.351 56.514 501.742 55.0375 497.57C53.561 493.397 53.4185 488.869 54.6297 484.612C55.841 480.356 58.346 476.581 61.7978 473.812L99.34 443.518C106.146 438.002 114.486 434.715 123.225 434.105C131.965 433.494 140.68 435.589 148.187 440.105C188.543 463.76 235.555 473.493 281.984 467.805C328.413 462.117 371.686 441.323 405.139 408.625C438.592 375.927 460.371 333.138 467.122 286.846C473.873 240.554 465.223 193.326 442.502 152.433C419.782 111.541 384.251 79.2512 341.381 60.5362C298.511 41.8212 250.678 37.7185 205.248 48.8597C159.817 60.0009 119.308 85.7683 89.9575 122.195C60.6068 158.621 44.0419 203.686 42.8134 250.452C41.3334 292.691 52.795 334.375 75.6628 369.918C78.6894 374.699 79.6931 380.487 78.453 386.008C77.2129 391.529 73.8307 396.331 69.0503 399.358C64.2699 402.385 58.4829 403.389 52.9625 402.149C47.4421 400.909 42.6404 397.526 39.6138 392.745C12.1481 350.023 -1.61971 299.932 0.151812 249.172C1.64852 193.071 21.5367 139.016 56.7559 95.3256C91.9752 51.635 140.574 20.7296 195.074 7.36501C249.574 -5.99959 306.955 -1.0828 358.387 21.3588C409.82 43.8004 452.454 82.5232 479.728 131.569C507.003 180.614 517.408 237.265 509.341 292.802C501.274 348.34 475.182 399.688 435.081 438.945C394.981 478.202 343.092 503.192 287.401 510.07C231.71 516.948 175.302 505.333 126.857 477.012L88.6746 507.091C84.8646 510.149 80.1208 511.805 75.2362 511.785Z" fill="#174A88"/>
</svg>
